<?xml version="1.0" encoding="UTF-8"?>
<svg width="842" height="600" viewBox="0 0 842 600" fill="none" xmlns="http://www.w3.org/2000/svg">
  <path d="M421 520C574.117 520 698 396.117 698 243C698 89.8832 574.117 -34 421 -34C267.883 -34 144 89.8832 144 243C144 396.117 267.883 520 421 520Z" fill="#F3F4F6"/>
  <path d="M421 486C555.163 486 664 377.163 664 243C664 108.837 555.163 0 421 0C286.837 0 178 108.837 178 243C178 377.163 286.837 486 421 486Z" fill="#E5E7EB"/>
  <path d="M421 452C536.21 452 630 358.21 630 243C630 127.79 536.21 34 421 34C305.79 34 212 127.79 212 243C212 358.21 305.79 452 421 452Z" fill="#D1D5DB"/>
  <path d="M421 418C517.257 418 595 340.257 595 244C595 147.743 517.257 70 421 70C324.743 70 247 147.743 247 244C247 340.257 324.743 418 421 418Z" fill="#9CA3AF"/>
  <path d="M421 384C498.304 384 561 321.304 561 244C561 166.696 498.304 104 421 104C343.696 104 281 166.696 281 244C281 321.304 343.696 384 421 384Z" fill="#6B7280"/>
  <path d="M421 350C479.35 350 527 302.35 527 244C527 185.65 479.35 138 421 138C362.65 138 315 185.65 315 244C315 302.35 362.65 350 421 350Z" fill="#4B5563"/>
  <path d="M421 316C460.397 316 492 284.397 492 245C492 205.603 460.397 174 421 174C381.603 174 350 205.603 350 245C350 284.397 381.603 316 421 316Z" fill="#374151"/>
  <path d="M421 282C441.443 282 458 265.443 458 245C458 224.557 441.443 208 421 208C400.557 208 384 224.557 384 245C384 265.443 400.557 282 421 282Z" fill="#1F2937"/>
</svg>